<mxfile host="Electron" modified="2023-05-25T17:58:54.722Z" agent="Mozilla/5.0 (Windows NT 10.0; Win64; x64) AppleWebKit/537.36 (KHTML, like Gecko) draw.io/21.2.8 Chrome/112.0.5615.165 Electron/24.2.0 Safari/537.36" etag="loGiG_IPKVc8XzkTb788" version="21.2.8" type="device">
  <diagram name="PÃ¡gina-1" id="rXHzjsykw7XI7K7KMVK4">
    <mxGraphModel dx="1877" dy="629" grid="1" gridSize="10" guides="1" tooltips="1" connect="1" arrows="1" fold="1" page="1" pageScale="1" pageWidth="827" pageHeight="1169" math="0" shadow="0">
      <root>
        <mxCell id="0" />
        <mxCell id="1" parent="0" />
        <mxCell id="i3INyTcyl_yD2n0tOvSr-1" value="" style="rounded=0;whiteSpace=wrap;html=1;" parent="1" vertex="1">
          <mxGeometry x="620" y="160" width="120" height="60" as="geometry" />
        </mxCell>
        <mxCell id="i3INyTcyl_yD2n0tOvSr-2" value="&lt;font style=&quot;font-size: 18px;&quot;&gt;&lt;u&gt;:Empresa&lt;/u&gt;&lt;/font&gt;" style="rounded=0;whiteSpace=wrap;html=1;" parent="1" vertex="1">
          <mxGeometry x="610" y="170" width="120" height="60" as="geometry" />
        </mxCell>
        <mxCell id="i3INyTcyl_yD2n0tOvSr-3" value="&lt;font style=&quot;font-size: 18px;&quot;&gt;&lt;u&gt;:Sistema&lt;/u&gt;&lt;/font&gt;" style="rounded=0;whiteSpace=wrap;html=1;" parent="1" vertex="1">
          <mxGeometry x="210" y="170" width="120" height="60" as="geometry" />
        </mxCell>
        <mxCell id="i3INyTcyl_yD2n0tOvSr-4" value="" style="endArrow=none;html=1;rounded=0;exitX=1;exitY=0.5;exitDx=0;exitDy=0;entryX=0;entryY=0.5;entryDx=0;entryDy=0;" parent="1" source="i3INyTcyl_yD2n0tOvSr-3" target="i3INyTcyl_yD2n0tOvSr-2" edge="1">
          <mxGeometry width="50" height="50" relative="1" as="geometry">
            <mxPoint x="380" y="320" as="sourcePoint" />
            <mxPoint x="430" y="270" as="targetPoint" />
          </mxGeometry>
        </mxCell>
        <mxCell id="i3INyTcyl_yD2n0tOvSr-5" value="" style="endArrow=none;html=1;rounded=0;entryX=0;entryY=0.5;entryDx=0;entryDy=0;" parent="1" target="i3INyTcyl_yD2n0tOvSr-3" edge="1">
          <mxGeometry width="50" height="50" relative="1" as="geometry">
            <mxPoint x="-80" y="200" as="sourcePoint" />
            <mxPoint x="430" y="270" as="targetPoint" />
          </mxGeometry>
        </mxCell>
        <mxCell id="i3INyTcyl_yD2n0tOvSr-6" value="&lt;font style=&quot;font-size: 14px;&quot;&gt;seleccionarEmpresa(rut : String) : Set &amp;lt;String&amp;gt;&lt;/font&gt;" style="text;html=1;strokeColor=none;fillColor=none;align=center;verticalAlign=middle;whiteSpace=wrap;rounded=0;" parent="1" vertex="1">
          <mxGeometry x="-110" y="140" width="320" height="30" as="geometry" />
        </mxCell>
        <mxCell id="i3INyTcyl_yD2n0tOvSr-7" value="" style="endArrow=classic;html=1;rounded=0;" parent="1" edge="1">
          <mxGeometry width="50" height="50" relative="1" as="geometry">
            <mxPoint x="10" y="180" as="sourcePoint" />
            <mxPoint x="100" y="180" as="targetPoint" />
          </mxGeometry>
        </mxCell>
        <mxCell id="i3INyTcyl_yD2n0tOvSr-8" value="&lt;font style=&quot;font-size: 14px;&quot;&gt;1 : e := find(rut : String)&lt;/font&gt;" style="text;html=1;strokeColor=none;fillColor=none;align=center;verticalAlign=middle;whiteSpace=wrap;rounded=0;" parent="1" vertex="1">
          <mxGeometry x="250" y="140" width="420" height="30" as="geometry" />
        </mxCell>
        <mxCell id="i3INyTcyl_yD2n0tOvSr-9" value="" style="endArrow=classic;html=1;rounded=0;" parent="1" edge="1">
          <mxGeometry width="50" height="50" relative="1" as="geometry">
            <mxPoint x="420" y="180" as="sourcePoint" />
            <mxPoint x="520" y="180" as="targetPoint" />
          </mxGeometry>
        </mxCell>
        <mxCell id="i3INyTcyl_yD2n0tOvSr-10" value="&lt;font style=&quot;font-size: 18px;&quot;&gt;&lt;u&gt;e:Empresa&lt;/u&gt;&lt;/font&gt;" style="rounded=0;whiteSpace=wrap;html=1;" parent="1" vertex="1">
          <mxGeometry x="610" y="280" width="120" height="60" as="geometry" />
        </mxCell>
        <mxCell id="i3INyTcyl_yD2n0tOvSr-11" value="" style="endArrow=none;html=1;rounded=0;exitX=0.5;exitY=1;exitDx=0;exitDy=0;entryX=0;entryY=0.5;entryDx=0;entryDy=0;" parent="1" source="i3INyTcyl_yD2n0tOvSr-3" target="i3INyTcyl_yD2n0tOvSr-10" edge="1">
          <mxGeometry width="50" height="50" relative="1" as="geometry">
            <mxPoint x="370" y="300" as="sourcePoint" />
            <mxPoint x="420" y="250" as="targetPoint" />
            <Array as="points">
              <mxPoint x="270" y="310" />
            </Array>
          </mxGeometry>
        </mxCell>
        <mxCell id="i3INyTcyl_yD2n0tOvSr-12" value="&lt;font style=&quot;font-size: 14px;&quot;&gt;2&amp;nbsp; : getNombreSucursales() : Set &amp;lt;String&amp;gt;&lt;/font&gt;" style="text;html=1;strokeColor=none;fillColor=none;align=center;verticalAlign=middle;whiteSpace=wrap;rounded=0;" parent="1" vertex="1">
          <mxGeometry x="320" y="260" width="270" height="30" as="geometry" />
        </mxCell>
        <mxCell id="i3INyTcyl_yD2n0tOvSr-13" value="" style="endArrow=classic;html=1;rounded=0;" parent="1" edge="1">
          <mxGeometry width="50" height="50" relative="1" as="geometry">
            <mxPoint x="395" y="300" as="sourcePoint" />
            <mxPoint x="505" y="300" as="targetPoint" />
          </mxGeometry>
        </mxCell>
        <mxCell id="i3INyTcyl_yD2n0tOvSr-14" value="" style="endArrow=none;dashed=1;html=1;rounded=0;entryX=0.25;entryY=1;entryDx=0;entryDy=0;exitX=0.5;exitY=0;exitDx=0;exitDy=0;exitPerimeter=0;" parent="1" source="i3INyTcyl_yD2n0tOvSr-15" target="i3INyTcyl_yD2n0tOvSr-3" edge="1">
          <mxGeometry width="50" height="50" relative="1" as="geometry">
            <mxPoint x="80" y="300" as="sourcePoint" />
            <mxPoint x="230" y="260" as="targetPoint" />
          </mxGeometry>
        </mxCell>
        <mxCell id="i3INyTcyl_yD2n0tOvSr-15" value="&lt;br&gt;El sistema recuerda la Empresa &#39;e&#39;" style="shape=note;whiteSpace=wrap;html=1;backgroundOutline=1;darkOpacity=0.05;fillColor=#fff2cc;strokeColor=#d6b656;" parent="1" vertex="1">
          <mxGeometry x="60" y="260" width="80" height="100" as="geometry" />
        </mxCell>
        <mxCell id="i3INyTcyl_yD2n0tOvSr-18" value="&lt;font style=&quot;font-size: 18px;&quot;&gt;&lt;u&gt;s:Sucursal&lt;/u&gt;&lt;/font&gt;" style="rounded=0;whiteSpace=wrap;html=1;" parent="1" vertex="1">
          <mxGeometry x="250" y="490" width="120" height="60" as="geometry" />
        </mxCell>
        <mxCell id="i3INyTcyl_yD2n0tOvSr-19" value="" style="rounded=0;whiteSpace=wrap;html=1;" parent="1" vertex="1">
          <mxGeometry x="260" y="360" width="120" height="60" as="geometry" />
        </mxCell>
        <mxCell id="i3INyTcyl_yD2n0tOvSr-20" value="&lt;font style=&quot;font-size: 18px;&quot;&gt;&lt;u&gt;:Sucursal&lt;/u&gt;&lt;/font&gt;" style="rounded=0;whiteSpace=wrap;html=1;" parent="1" vertex="1">
          <mxGeometry x="250" y="370" width="120" height="60" as="geometry" />
        </mxCell>
        <mxCell id="i3INyTcyl_yD2n0tOvSr-21" value="" style="endArrow=none;html=1;rounded=0;exitX=1.018;exitY=0.62;exitDx=0;exitDy=0;exitPerimeter=0;entryX=0.25;entryY=1;entryDx=0;entryDy=0;" parent="1" source="i3INyTcyl_yD2n0tOvSr-19" target="i3INyTcyl_yD2n0tOvSr-10" edge="1">
          <mxGeometry width="50" height="50" relative="1" as="geometry">
            <mxPoint x="390" y="420" as="sourcePoint" />
            <mxPoint x="660" y="400" as="targetPoint" />
            <Array as="points">
              <mxPoint x="640" y="397" />
            </Array>
          </mxGeometry>
        </mxCell>
        <mxCell id="i3INyTcyl_yD2n0tOvSr-22" value="&lt;font style=&quot;font-size: 14px;&quot;&gt;2.1* [foreach]: s := next()&lt;/font&gt;" style="text;html=1;align=center;verticalAlign=middle;resizable=0;points=[];autosize=1;strokeColor=none;fillColor=none;" parent="1" vertex="1">
          <mxGeometry x="414" y="340" width="180" height="30" as="geometry" />
        </mxCell>
        <mxCell id="i3INyTcyl_yD2n0tOvSr-23" value="" style="endArrow=classic;html=1;rounded=0;" parent="1" edge="1">
          <mxGeometry width="50" height="50" relative="1" as="geometry">
            <mxPoint x="560" y="380" as="sourcePoint" />
            <mxPoint x="460" y="380" as="targetPoint" />
          </mxGeometry>
        </mxCell>
        <mxCell id="i3INyTcyl_yD2n0tOvSr-25" value="" style="endArrow=none;html=1;rounded=0;exitX=1;exitY=0.5;exitDx=0;exitDy=0;entryX=0.75;entryY=1;entryDx=0;entryDy=0;" parent="1" source="i3INyTcyl_yD2n0tOvSr-18" target="i3INyTcyl_yD2n0tOvSr-10" edge="1">
          <mxGeometry width="50" height="50" relative="1" as="geometry">
            <mxPoint x="390" y="410" as="sourcePoint" />
            <mxPoint x="440" y="360" as="targetPoint" />
            <Array as="points">
              <mxPoint x="700" y="520" />
            </Array>
          </mxGeometry>
        </mxCell>
        <mxCell id="i3INyTcyl_yD2n0tOvSr-26" value="&lt;font style=&quot;font-size: 14px;&quot;&gt;2.2* : nom := getNombreSucursal(): String&lt;/font&gt;" style="text;html=1;strokeColor=none;fillColor=none;align=center;verticalAlign=middle;whiteSpace=wrap;rounded=0;" parent="1" vertex="1">
          <mxGeometry x="400" y="460" width="270" height="30" as="geometry" />
        </mxCell>
        <mxCell id="i3INyTcyl_yD2n0tOvSr-27" value="" style="endArrow=classic;html=1;rounded=0;" parent="1" edge="1">
          <mxGeometry width="50" height="50" relative="1" as="geometry">
            <mxPoint x="570" y="500" as="sourcePoint" />
            <mxPoint x="470" y="500" as="targetPoint" />
          </mxGeometry>
        </mxCell>
        <mxCell id="i3INyTcyl_yD2n0tOvSr-29" value="&lt;br&gt;Devuelve un set de Strings con todos los &#39;nom&#39;" style="shape=note;whiteSpace=wrap;html=1;backgroundOutline=1;darkOpacity=0.05;fillColor=#fff2cc;strokeColor=#d6b656;" parent="1" vertex="1">
          <mxGeometry x="820" y="370" width="80" height="100" as="geometry" />
        </mxCell>
        <mxCell id="i3INyTcyl_yD2n0tOvSr-30" value="" style="endArrow=none;dashed=1;html=1;rounded=0;entryX=1;entryY=1;entryDx=0;entryDy=0;exitX=0;exitY=0;exitDx=0;exitDy=0;exitPerimeter=0;" parent="1" source="i3INyTcyl_yD2n0tOvSr-29" target="i3INyTcyl_yD2n0tOvSr-10" edge="1">
          <mxGeometry width="50" height="50" relative="1" as="geometry">
            <mxPoint x="390" y="380" as="sourcePoint" />
            <mxPoint x="440" y="330" as="targetPoint" />
          </mxGeometry>
        </mxCell>
      </root>
    </mxGraphModel>
  </diagram>
</mxfile>
